<svg xmlns="http://www.w3.org/2000/svg"  viewBox="0 0 24 24" width="24px" height="24px"><path d="M 10.941406 0.99804688 C 10.31639 0.99804688 9.77815 1.4729587 9.7011719 2.09375 L 9.5351562 3.4199219 C 8.1077936 3.8320377 6.8433087 4.5736193 5.8046875 5.5761719 L 4.5722656 5.0566406 C 3.9955251 4.8130175 3.3160841 5.0419142 3.0039062 5.5820312 L 1.9453125 7.4160156 C 1.6333733 7.9557199 1.7748716 8.6597492 2.2714844 9.0371094 L 3.3339844 9.8417969 C 3.1596002 10.540468 3 11.248018 3 12 C 3 12.751982 3.1595527 13.459904 3.3339844 14.158203 L 2.2734375 14.960938 C 1.7749828 15.337877 1.632637 16.041966 1.9433594 16.582031 A 0.750075 0.750075 0 0 0 1.9453125 16.583984 L 3.0039062 18.417969 C 3.3160841 18.958086 3.9955251 19.186983 4.5722656 18.943359 L 5.8066406 18.423828 C 6.8454475 19.426294 8.1095764 20.168168 9.5371094 20.580078 L 9.7011719 21.90625 C 9.7781499 22.527041 10.31639 23.001953 10.941406 23.001953 L 13.058594 23.001953 C 13.68361 23.001953 14.22185 22.527041 14.298828 21.90625 L 14.464844 20.580078 C 15.892206 20.167962 17.156692 19.426381 18.195312 18.423828 L 19.429688 18.943359 C 20.004742 19.186271 20.686235 18.957979 20.998047 18.416016 L 22.056641 16.583984 C 22.369055 16.043458 22.226444 15.340424 21.730469 14.962891 A 0.750075 0.750075 0 0 0 21.728516 14.960938 L 20.666016 14.158203 C 20.840437 13.459834 21 12.751982 21 12 C 21 11.248018 20.840447 10.540096 20.666016 9.8417969 L 21.726562 9.0390625 C 22.225017 8.6621216 22.367363 7.9580337 22.056641 7.4179688 A 0.750075 0.750075 0 0 0 22.054688 7.4160156 L 20.996094 5.5820312 C 20.683916 5.0419142 20.004475 4.8130175 19.427734 5.0566406 L 18.193359 5.5761719 C 17.154553 4.5737057 15.890424 3.8318319 14.462891 3.4199219 L 14.298828 2.09375 C 14.22185 1.4729587 13.68361 0.99804687 13.058594 0.99804688 L 10.941406 0.99804688 z M 11.162109 2.4980469 L 12.837891 2.4980469 L 13.029297 4.0390625 A 0.750075 0.750075 0 0 0 13.613281 4.6777344 C 15.148094 5.0146665 16.501136 5.8215425 17.527344 6.9433594 A 0.750075 0.750075 0 0 0 18.373047 7.1289062 L 19.806641 6.5234375 L 20.646484 7.9765625 L 19.412109 8.9101562 A 0.750075 0.750075 0 0 0 19.150391 9.734375 C 19.376841 10.449194 19.5 11.209251 19.5 12 C 19.5 12.790749 19.377004 13.54938 19.150391 14.265625 A 0.750075 0.750075 0 0 0 19.412109 15.089844 L 20.648438 16.023438 L 19.808594 17.476562 L 18.373047 16.871094 A 0.750075 0.750075 0 0 0 17.529297 17.056641 C 16.503089 18.178458 15.148094 18.985333 13.613281 19.322266 A 0.750075 0.750075 0 0 0 13.03125 19.960938 L 12.837891 21.501953 L 11.162109 21.501953 L 10.970703 19.960938 A 0.750075 0.750075 0 0 0 10.386719 19.322266 C 8.8519063 18.985333 7.4988637 18.178458 6.4726562 17.056641 A 0.750075 0.750075 0 0 0 5.6269531 16.871094 L 4.1933594 17.476562 L 3.3535156 16.023438 L 4.5878906 15.089844 A 0.750075 0.750075 0 0 0 4.8496094 14.265625 C 4.623159 13.550806 4.5 12.790749 4.5 12 C 4.5 11.209251 4.6230509 10.448492 4.8496094 9.7324219 A 0.750075 0.750075 0 0 0 4.5878906 8.9082031 L 3.3554688 7.9765625 L 4.1933594 6.5234375 L 5.6269531 7.1289062 A 0.750075 0.750075 0 0 0 6.4707031 6.9433594 C 7.4969106 5.8215425 8.8519063 5.0146665 10.386719 4.6777344 A 0.750075 0.750075 0 0 0 10.96875 4.0390625 L 11.162109 2.4980469 z M 12 8 C 10.729167 8 9.6810741 8.5035667 9.0019531 9.2675781 C 8.3228321 10.03159 8 11.020833 8 12 C 8 12.979167 8.3228321 13.96841 9.0019531 14.732422 C 9.6810741 15.496433 10.729167 16 12 16 C 13.270833 16 14.318926 15.496433 14.998047 14.732422 C 15.677168 13.96841 16 12.979167 16 12 C 16 11.020833 15.677168 10.03159 14.998047 9.2675781 C 14.318926 8.5035667 13.270833 8 12 8 z M 12 9.5 C 12.895833 9.5 13.472741 9.8089332 13.876953 10.263672 C 14.281165 10.71841 14.5 11.354167 14.5 12 C 14.5 12.645833 14.281165 13.28159 13.876953 13.736328 C 13.472741 14.191067 12.895833 14.5 12 14.5 C 11.104167 14.5 10.527259 14.191067 10.123047 13.736328 C 9.7188349 13.28159 9.5 12.645833 9.5 12 C 9.5 11.354167 9.7188349 10.71841 10.123047 10.263672 C 10.527259 9.8089332 11.104167 9.5 12 9.5 z"/></svg>